<svg width="599" height="150" viewBox="0 0 599 150" fill="none" xmlns="http://www.w3.org/2000/svg">
<rect width="599" height="150" rx="32" fill="#010007"/>
<path d="M43 35.5L32 43.5L44 68.5L55 76L77 73.5V60L43 35.5Z" fill="url(#paint0_linear_14_67)"/>
<path d="M43 35.5L32 43.5L44 68.5L55 76L77 73.5V60L43 35.5Z" fill="url(#paint1_linear_14_67)" fill-opacity="0.2"/>
<path d="M118 43.5L107 35.5L73 60V73.5L95 76L106 68.5L118 43.5Z" fill="url(#paint2_linear_14_67)"/>
<path d="M118 43.5L107 35.5L73 60V73.5L95 76L106 68.5L118 43.5Z" fill="url(#paint3_linear_14_67)" fill-opacity="0.2"/>
<path d="M118 106.5L108 114.5L78 92.5L75 73.5V58.5L108 82.5L118 106.5Z" fill="url(#paint4_linear_14_67)"/>
<path d="M32 106.5L42 114.5L72 92.5L75 73.5V58.5L42 82.5L32 106.5Z" fill="url(#paint5_linear_14_67)"/>
<path d="M217.288 97H199.928C187.156 97 181.514 87.762 181.514 75.362C181.514 62.9 187.094 53.724 199.928 53.724H217.288V60.234H202.718C192.86 60.234 188.582 65.566 188.582 75.362C188.582 85.22 192.736 90.428 202.656 90.428H217.288V97ZM175.42 104.688H153.162V98.922H175.42V104.688Z" fill="#FDCB4C"/>
<path d="M227.146 97H233.842V81.066H245.25L253.558 97H260.874L250.954 80.136L251.822 79.702C256.41 77.346 259.138 72.2 259.138 67.054C259.138 57.878 253.31 53.724 244.506 53.724H227.146V59.428H243.576C248.226 59.428 253 61.102 253 67.24C253 73.13 248.598 75.734 243.638 75.734H227.146V97ZM264.82 76.354C265.254 89.25 273.996 97.62 286.892 97.62C300.47 97.62 309.15 89.374 309.15 75.362C309.15 62.032 300.532 53.476 287.822 53.104V59.428C296.874 59.8 302.516 65.876 302.516 75.362C302.516 85.158 296.502 91.358 286.892 91.358C277.654 91.358 271.95 85.468 271.578 76.354H264.82ZM348.38 66.62C347.884 57.258 340.816 53.352 331.888 53.104L331.95 58.188C336.724 58.498 341.188 61.226 341.622 66.62H348.38ZM314.218 84.042C314.652 94.024 322.34 97.62 331.888 97.62C339.762 97.62 348.38 94.024 348.38 85.468C348.38 78.028 342.366 75.3 335.484 73.316C333.81 72.758 332.074 72.324 330.524 71.89C327.114 70.898 322.092 69.41 321.348 65.38L314.962 65.194C315.396 71.89 321.1 74.246 327.61 76.044C329.222 76.602 330.958 76.974 332.508 77.408C334.12 77.966 335.608 78.462 336.972 79.02C339.638 80.322 341.684 82.182 341.684 85.468C341.684 91.11 335.174 92.474 331.702 92.474C326.432 92.474 321.534 89.994 321.1 84.042H314.218ZM387.372 66.62C386.876 57.258 379.808 53.352 370.88 53.104L370.942 58.188C375.716 58.498 380.18 61.226 380.614 66.62H387.372ZM353.21 84.042C353.644 94.024 361.332 97.62 370.88 97.62C378.754 97.62 387.372 94.024 387.372 85.468C387.372 78.028 381.358 75.3 374.476 73.316C372.802 72.758 371.066 72.324 369.516 71.89C366.106 70.898 361.084 69.41 360.34 65.38L353.954 65.194C354.388 71.89 360.092 74.246 366.602 76.044C368.214 76.602 369.95 76.974 371.5 77.408C373.112 77.966 374.6 78.462 375.964 79.02C378.63 80.322 380.676 82.182 380.676 85.468C380.676 91.11 374.166 92.474 370.694 92.474C365.424 92.474 360.526 89.994 360.092 84.042H353.21ZM394.558 97H401.254V81.066H412.662L420.97 97H428.286L418.366 80.136L419.234 79.702C423.822 77.346 426.55 72.2 426.55 67.054C426.55 57.878 420.722 53.724 411.918 53.724H394.558V59.428H410.988C415.638 59.428 420.412 61.102 420.412 67.24C420.412 73.13 416.01 75.734 411.05 75.734H394.558V97ZM432.232 76.354C432.666 89.25 441.408 97.62 454.304 97.62C467.882 97.62 476.562 89.374 476.562 75.362C476.562 62.032 467.944 53.476 455.234 53.104V59.428C464.286 59.8 469.928 65.876 469.928 75.362C469.928 85.158 463.914 91.358 454.304 91.358C445.066 91.358 439.362 85.468 438.99 76.354H432.232ZM480.514 97H487.768L500.354 59.118H500.726L514.18 97H521.93L505.314 53.724H495.766L480.514 97Z" fill="url(#paint6_linear_14_67)"/>
<path d="M527.712 97H545.072C557.844 97 563.486 87.762 563.486 75.362C563.486 62.9 557.906 53.724 545.072 53.724H527.712V60.234H542.282C552.14 60.234 556.418 65.566 556.418 75.362C556.418 85.22 552.264 90.428 542.344 90.428H527.712V97Z" fill="#FF60D9"/>
<defs>
<linearGradient id="paint0_linear_14_67" x1="32" y1="35" x2="118" y2="35" gradientUnits="userSpaceOnUse">
<stop stop-color="#F34FAF"/>
<stop offset="1" stop-color="#FDCB4C"/>
</linearGradient>
<linearGradient id="paint1_linear_14_67" x1="46" y1="35" x2="55" y2="76" gradientUnits="userSpaceOnUse">
<stop stop-color="white" stop-opacity="0"/>
<stop offset="0.848958" stop-color="#FF9A9A"/>
</linearGradient>
<linearGradient id="paint2_linear_14_67" x1="38" y1="76" x2="114.5" y2="76" gradientUnits="userSpaceOnUse">
<stop stop-color="#F24CB0"/>
<stop offset="1" stop-color="#F9CA26"/>
</linearGradient>
<linearGradient id="paint3_linear_14_67" x1="106.5" y1="38.5" x2="92" y2="71" gradientUnits="userSpaceOnUse">
<stop stop-color="#FFFEFE" stop-opacity="0"/>
<stop offset="1" stop-color="#352000"/>
</linearGradient>
<linearGradient id="paint4_linear_14_67" x1="29.5" y1="114" x2="118" y2="114" gradientUnits="userSpaceOnUse">
<stop stop-color="#F24CB0"/>
<stop offset="1" stop-color="#FDCB4C"/>
</linearGradient>
<linearGradient id="paint5_linear_14_67" x1="32" y1="72.5" x2="118" y2="72.5" gradientUnits="userSpaceOnUse">
<stop stop-color="#C12D86"/>
<stop offset="1" stop-color="#FDCB4C"/>
</linearGradient>
<linearGradient id="paint6_linear_14_67" x1="222" y1="81.0506" x2="523" y2="81.0506" gradientUnits="userSpaceOnUse">
<stop offset="0.229167" stop-color="#FDCB4C"/>
<stop offset="1" stop-color="#FF5EDB"/>
</linearGradient>
</defs>
</svg>
