<svg width="564" height="150" viewBox="0 0 564 150" fill="none" xmlns="http://www.w3.org/2000/svg">
<rect width="564" height="150" rx="32" fill="#010007"/>
<path d="M43 35.5L32 43.5L44 68.5L55 76L77 73.5V60L43 35.5Z" fill="url(#paint0_linear_11_2)"/>
<path d="M43 35.5L32 43.5L44 68.5L55 76L77 73.5V60L43 35.5Z" fill="url(#paint1_linear_11_2)" fill-opacity="0.2"/>
<path d="M118 43.5L107 35.5L73 60V73.5L95 76L106 68.5L118 43.5Z" fill="url(#paint2_linear_11_2)"/>
<path d="M118 43.5L107 35.5L73 60V73.5L95 76L106 68.5L118 43.5Z" fill="url(#paint3_linear_11_2)" fill-opacity="0.2"/>
<path d="M118 106.5L108 114.5L78 92.5L75 73.5V58.5L108 82.5L118 106.5Z" fill="url(#paint4_linear_11_2)"/>
<path d="M32 106.5L42 114.5L72 92.5L75 73.5V58.5L42 82.5L32 106.5Z" fill="url(#paint5_linear_11_2)"/>
<path d="M190.288 97H172.928C160.156 97 154.514 87.762 154.514 75.362C154.514 62.9 160.094 53.724 172.928 53.724H190.288V60.234H175.718C165.86 60.234 161.582 65.566 161.582 75.362C161.582 85.22 165.736 90.428 175.656 90.428H190.288V97Z" fill="#FDCB4C"/>
<path d="M200.146 97H206.842V81.066H218.25L226.558 97H233.874L223.954 80.136L224.822 79.702C229.41 77.346 232.138 72.2 232.138 67.054C232.138 57.878 226.31 53.724 217.506 53.724H200.146V97ZM206.842 75.734V59.428H216.576C221.226 59.428 226 61.102 226 67.24C226 73.13 221.598 75.734 216.638 75.734H206.842ZM235.822 75.362C235.822 88.816 244.75 97.62 257.894 97.62C271.162 97.62 280.152 89.002 280.152 75.362C280.152 61.35 271.472 53.104 257.894 53.104C244.688 53.104 235.822 61.846 235.822 75.362ZM257.894 91.296C248.284 91.296 242.58 84.972 242.58 75.362C242.58 65.752 248.222 59.366 257.894 59.366C267.504 59.366 273.518 65.566 273.518 75.362C273.518 85.22 267.504 91.296 257.894 91.296ZM283.282 84.042C283.716 94.024 291.342 97.62 300.952 97.62C308.826 97.62 317.444 94.024 317.444 85.468C317.444 78.028 311.43 75.362 304.548 73.316C302.874 72.758 301.138 72.324 299.588 71.89C295.806 70.774 290.35 69.162 290.35 64.388C290.35 59.49 296.178 58.188 300.084 58.188C305.168 58.188 310.252 60.854 310.686 66.62H317.444C316.948 56.948 309.384 53.104 300.022 53.104C292.768 53.104 283.964 56.328 283.964 64.264C283.964 71.704 289.854 74.122 296.674 76.044C298.348 76.602 300.022 76.974 301.572 77.47C305.664 78.71 310.748 80.26 310.748 85.468C310.748 91.11 304.3 92.474 300.766 92.474C295.496 92.474 290.598 89.994 290.164 84.042H283.282ZM322.274 84.042C322.708 94.024 330.334 97.62 339.944 97.62C347.818 97.62 356.436 94.024 356.436 85.468C356.436 78.028 350.422 75.362 343.54 73.316C341.866 72.758 340.13 72.324 338.58 71.89C334.798 70.774 329.342 69.162 329.342 64.388C329.342 59.49 335.17 58.188 339.076 58.188C344.16 58.188 349.244 60.854 349.678 66.62H356.436C355.94 56.948 348.376 53.104 339.014 53.104C331.76 53.104 322.956 56.328 322.956 64.264C322.956 71.704 328.846 74.122 335.666 76.044C337.34 76.602 339.014 76.974 340.564 77.47C344.656 78.71 349.74 80.26 349.74 85.468C349.74 91.11 343.292 92.474 339.758 92.474C334.488 92.474 329.59 89.994 329.156 84.042H322.274ZM363.623 97H370.319V81.066H381.727L390.035 97H397.351L387.431 80.136L388.299 79.702C392.887 77.346 395.615 72.2 395.615 67.054C395.615 57.878 389.787 53.724 380.983 53.724H363.623V97ZM370.319 75.734V59.428H380.053C384.703 59.428 389.477 61.102 389.477 67.24C389.477 73.13 385.075 75.734 380.115 75.734H370.319ZM399.299 75.362C399.299 88.816 408.227 97.62 421.371 97.62C434.639 97.62 443.629 89.002 443.629 75.362C443.629 61.35 434.949 53.104 421.371 53.104C408.165 53.104 399.299 61.846 399.299 75.362ZM421.371 91.296C411.761 91.296 406.057 84.972 406.057 75.362C406.057 65.752 411.699 59.366 421.371 59.366C430.981 59.366 436.995 65.566 436.995 75.362C436.995 85.22 430.981 91.296 421.371 91.296ZM445.522 97H452.776L455.504 88.94H476.336L479.188 97H486.938L470.322 53.724H460.774L445.522 97ZM457.426 83.422L465.362 60.048H465.734L474.352 83.422H457.426Z" fill="url(#paint6_linear_11_2)"/>
<path d="M492.712 97H510.072C522.844 97 528.486 87.762 528.486 75.362C528.486 62.9 522.906 53.724 510.072 53.724H492.712V60.234H507.282C517.14 60.234 521.418 65.566 521.418 75.362C521.418 85.22 517.264 90.428 507.344 90.428H492.712V97Z" fill="#FF60D9"/>
<defs>
<linearGradient id="paint0_linear_11_2" x1="32" y1="35" x2="118" y2="35" gradientUnits="userSpaceOnUse">
<stop stop-color="#F34FAF"/>
<stop offset="1" stop-color="#FDCB4C"/>
</linearGradient>
<linearGradient id="paint1_linear_11_2" x1="46" y1="35" x2="55" y2="76" gradientUnits="userSpaceOnUse">
<stop stop-color="white" stop-opacity="0"/>
<stop offset="0.848958" stop-color="#FF9A9A"/>
</linearGradient>
<linearGradient id="paint2_linear_11_2" x1="38" y1="76" x2="114.5" y2="76" gradientUnits="userSpaceOnUse">
<stop stop-color="#F24CB0"/>
<stop offset="1" stop-color="#F9CA26"/>
</linearGradient>
<linearGradient id="paint3_linear_11_2" x1="106.5" y1="38.5" x2="92" y2="71" gradientUnits="userSpaceOnUse">
<stop stop-color="#FFFEFE" stop-opacity="0"/>
<stop offset="1" stop-color="#352000"/>
</linearGradient>
<linearGradient id="paint4_linear_11_2" x1="29.5" y1="114" x2="118" y2="114" gradientUnits="userSpaceOnUse">
<stop stop-color="#F24CB0"/>
<stop offset="1" stop-color="#FDCB4C"/>
</linearGradient>
<linearGradient id="paint5_linear_11_2" x1="32" y1="72.5" x2="118" y2="72.5" gradientUnits="userSpaceOnUse">
<stop stop-color="#C12D86"/>
<stop offset="1" stop-color="#FDCB4C"/>
</linearGradient>
<linearGradient id="paint6_linear_11_2" x1="195" y1="81.0506" x2="488" y2="81.0506" gradientUnits="userSpaceOnUse">
<stop offset="0.229167" stop-color="#FDCB4C"/>
<stop offset="1" stop-color="#FF5EDB"/>
</linearGradient>
</defs>
</svg>
